#N canvas 525 41 534 406 10;
#N canvas 123 542 983 407 notes 0;
#X obj -164 10 r BTN1;
#X obj -113 10 r BTN2;
#X obj -62 10 r BTN3;
#X obj -164 50 tgl 15 0 empty empty empty 17 7 0 10 -262144 -1 -1 0
1;
#X obj -164 68 sel 0 1;
#X obj -113 50 tgl 15 0 empty empty empty 17 7 0 10 -262144 -1 -1 0
1;
#X obj -113 68 sel 0 1;
#X obj -62 50 tgl 15 0 empty empty empty 17 7 0 10 -262144 -1 -1 0
1;
#X obj -62 68 sel 0 1;
#X msg -113 89 0;
#X msg -62 89 0;
#X msg -145 110 1;
#X msg -94 110 2;
#X msg -43 110 3;
#X msg -164 89 0;
#X obj -164 195 list;
#X obj 66 97 remote;
#X obj 128 123 r nA;
#X obj -164 215 s nList;
#X obj 67 123 r nList;
#X obj 257 123 r nList;
#X obj 318 123 r nB;
#X obj 165 194 r nList;
#X obj 257 194 r nList;
#X obj 349 123 r nList;
#X obj 67 265 r nList;
#X obj 159 265 r nList;
#X obj 410 123 r nC;
#X obj 226 194 r nD;
#X obj 128 265 r nF;
#X obj 257 265 r nList;
#X obj -11 10 r BTN4;
#X obj -11 50 tgl 15 0 empty empty empty 17 7 0 10 -262144 -1 -1 0
1;
#X obj -11 68 sel 0 1;
#X msg -11 89 0;
#X msg 8 110 4;
#X obj -164 143 bondo 4 ------------------;
#N canvas 1269 463 212 256 debounce 0;
#X obj -98 -10 inlet;
#X obj -75 10 inlet;
#X obj -52 30 inlet;
#X obj -113 208 outlet;
#X obj -86 188 outlet;
#X obj -59 168 outlet;
#X obj -113 109 l;
#X obj -170 45 loadbang;
#X obj -170 26 bng 15 250 50 0 empty empty empty 17 7 0 10 -262144
-1 -1;
#X obj -98 89 pack f f f f;
#X obj -98 69 bondo 4 ----;
#X obj -29 50 inlet;
#X obj -113 129 unpack f f f f;
#X obj -32 148 outlet;
#X obj -170 66 metro 100;
#X connect 0 0 10 0;
#X connect 1 0 10 1;
#X connect 2 0 10 2;
#X connect 6 0 12 0;
#X connect 7 0 14 0;
#X connect 8 0 7 0;
#X connect 9 0 6 1;
#X connect 10 0 9 0;
#X connect 10 1 9 1;
#X connect 10 2 9 2;
#X connect 10 3 9 3;
#X connect 11 0 10 3;
#X connect 12 0 3 0;
#X connect 12 1 4 0;
#X connect 12 2 5 0;
#X connect 12 3 13 0;
#X connect 14 0 6 0;
#X restore -164 30 pd debounce --------------;
#X obj -164 173 pack f f f f;
#X obj 159 123 r nList;
#X obj 220 123 r nA#;
#X obj 67 194 r nList;
#X obj 128 194 r nC#;
#N canvas 99 562 214 210 listComp 0;
#X obj 5 19 list-compare;
#X obj 85 19 list-l2s;
#X symbolatom 85 46 8 0 0 0 - - hide1;
#X obj 67 46 tgl 16 0 hides hider empty 17 7 0 10 -262144 -1 -1 0 1
;
#X obj 5 -41 inlet;
#X obj 85 -41 inlet;
#X obj 67 71 sel 1;
#X obj 85 -22 unpack f f f f f;
#X obj 85 -3 pack f f f f;
#X obj 163 110 f;
#X floatatom 163 136 5 0 0 0 - - -;
#X obj 120 136 outlet;
#X connect 0 0 3 0;
#X connect 1 0 2 0;
#X connect 3 0 6 0;
#X connect 4 0 0 0;
#X connect 5 0 7 0;
#X connect 6 0 9 0;
#X connect 7 0 8 0;
#X connect 7 1 8 1;
#X connect 7 2 8 2;
#X connect 7 3 8 3;
#X connect 7 4 9 1;
#X connect 8 0 0 1;
#X connect 8 0 1 0;
#X connect 9 0 10 0;
#X connect 9 0 11 0;
#X coords 0 -1 1 1 68 31 2 67 38;
#X restore 67 142 pd listComp;
#X obj 318 194 r nD#;
#X obj 356 194 r nList;
#X obj 417 194 r nE;
#X obj 220 265 r nF#;
#X obj 318 265 r nG;
#X obj 349 265 r nList;
#X obj 410 265 r nG#;
#X obj -70 228 r nList;
#X obj 67 175 s nSel;
#X obj 159 175 s nSel;
#X obj 257 175 s nSel;
#X obj 349 175 s nSel;
#X obj 67 246 s nSel;
#X obj 165 246 s nSel;
#X obj 257 246 s nSel;
#X obj 356 246 s nSel;
#X obj 67 317 s nSel;
#X obj 159 317 s nSel;
#X obj 257 317 s nSel;
#X obj 349 317 s nSel;
#X obj -7 228 r nO;
#X obj -70 266 s nOtog;
#X obj 65 9 bng 15 250 50 0 empty empty empty 17 7 0 10 -262144 -1
-1;
#X obj 440 87 remote;
#X obj 439 7 bng 15 250 50 0 empty empty empty 17 7 0 10 -262144 -1
-1;
#X text 469 8 Trumpet mapping;
#X obj 329 -50 inlet;
#X obj 329 -30 sel 0 1;
#X obj -164 -50 loadbang;
#X msg -164 -28 \; noteTog 1;
#N canvas 99 562 214 210 listComp 0;
#X obj 5 19 list-compare;
#X obj 85 19 list-l2s;
#X symbolatom 85 46 8 0 0 0 - - hide1;
#X obj 67 46 tgl 16 0 hides hider empty 17 7 0 10 -262144 -1 -1 0 1
;
#X obj 5 -41 inlet;
#X obj 85 -41 inlet;
#X obj 67 71 sel 1;
#X obj 85 -22 unpack f f f f f;
#X obj 85 -3 pack f f f f;
#X obj 163 110 f;
#X floatatom 163 136 5 0 0 0 - - -;
#X obj 120 136 outlet;
#X connect 0 0 3 0;
#X connect 1 0 2 0;
#X connect 3 0 6 0;
#X connect 4 0 0 0;
#X connect 5 0 7 0;
#X connect 6 0 9 0;
#X connect 7 0 8 0;
#X connect 7 1 8 1;
#X connect 7 2 8 2;
#X connect 7 3 8 3;
#X connect 7 4 9 1;
#X connect 8 0 0 1;
#X connect 8 0 1 0;
#X connect 9 0 10 0;
#X connect 9 0 11 0;
#X coords 0 -1 1 1 68 31 2 67 38;
#X restore 159 142 pd listComp;
#N canvas 99 562 214 210 listComp 0;
#X obj 5 19 list-compare;
#X obj 85 19 list-l2s;
#X symbolatom 85 46 8 0 0 0 - - hide1;
#X obj 67 46 tgl 16 0 hides hider empty 17 7 0 10 -262144 -1 -1 0 1
;
#X obj 5 -41 inlet;
#X obj 85 -41 inlet;
#X obj 67 71 sel 1;
#X obj 85 -22 unpack f f f f f;
#X obj 85 -3 pack f f f f;
#X obj 163 110 f;
#X floatatom 163 136 5 0 0 0 - - -;
#X obj 120 136 outlet;
#X connect 0 0 3 0;
#X connect 1 0 2 0;
#X connect 3 0 6 0;
#X connect 4 0 0 0;
#X connect 5 0 7 0;
#X connect 6 0 9 0;
#X connect 7 0 8 0;
#X connect 7 1 8 1;
#X connect 7 2 8 2;
#X connect 7 3 8 3;
#X connect 7 4 9 1;
#X connect 8 0 0 1;
#X connect 8 0 1 0;
#X connect 9 0 10 0;
#X connect 9 0 11 0;
#X coords 0 -1 1 1 68 31 2 67 38;
#X restore 257 142 pd listComp;
#N canvas 99 562 214 210 listComp 0;
#X obj 5 19 list-compare;
#X obj 85 19 list-l2s;
#X symbolatom 85 46 8 0 0 0 - - hide1;
#X obj 67 46 tgl 16 0 hides hider empty 17 7 0 10 -262144 -1 -1 0 1
;
#X obj 5 -41 inlet;
#X obj 85 -41 inlet;
#X obj 67 71 sel 1;
#X obj 85 -22 unpack f f f f f;
#X obj 85 -3 pack f f f f;
#X obj 163 110 f;
#X floatatom 163 136 5 0 0 0 - - -;
#X obj 120 136 outlet;
#X connect 0 0 3 0;
#X connect 1 0 2 0;
#X connect 3 0 6 0;
#X connect 4 0 0 0;
#X connect 5 0 7 0;
#X connect 6 0 9 0;
#X connect 7 0 8 0;
#X connect 7 1 8 1;
#X connect 7 2 8 2;
#X connect 7 3 8 3;
#X connect 7 4 9 1;
#X connect 8 0 0 1;
#X connect 8 0 1 0;
#X connect 9 0 10 0;
#X connect 9 0 11 0;
#X coords 0 -1 1 1 68 31 2 67 38;
#X restore 349 142 pd listComp;
#N canvas 99 562 214 210 listComp 0;
#X obj 5 19 list-compare;
#X obj 85 19 list-l2s;
#X symbolatom 85 46 8 0 0 0 - - hide1;
#X obj 67 46 tgl 16 0 hides hider empty 17 7 0 10 -262144 -1 -1 0 1
;
#X obj 5 -41 inlet;
#X obj 85 -41 inlet;
#X obj 67 71 sel 1;
#X obj 85 -22 unpack f f f f f;
#X obj 85 -3 pack f f f f;
#X obj 163 110 f;
#X floatatom 163 136 5 0 0 0 - - -;
#X obj 120 136 outlet;
#X connect 0 0 3 0;
#X connect 1 0 2 0;
#X connect 3 0 6 0;
#X connect 4 0 0 0;
#X connect 5 0 7 0;
#X connect 6 0 9 0;
#X connect 7 0 8 0;
#X connect 7 1 8 1;
#X connect 7 2 8 2;
#X connect 7 3 8 3;
#X connect 7 4 9 1;
#X connect 8 0 0 1;
#X connect 8 0 1 0;
#X connect 9 0 10 0;
#X connect 9 0 11 0;
#X coords 0 -1 1 1 68 31 2 67 38;
#X restore 67 213 pd listComp;
#N canvas 99 562 214 210 listComp 0;
#X obj 5 19 list-compare;
#X obj 85 19 list-l2s;
#X symbolatom 85 46 8 0 0 0 - - hide1;
#X obj 67 46 tgl 16 0 hides hider empty 17 7 0 10 -262144 -1 -1 0 1
;
#X obj 5 -41 inlet;
#X obj 85 -41 inlet;
#X obj 67 71 sel 1;
#X obj 85 -22 unpack f f f f f;
#X obj 85 -3 pack f f f f;
#X obj 163 110 f;
#X floatatom 163 136 5 0 0 0 - - -;
#X obj 120 136 outlet;
#X connect 0 0 3 0;
#X connect 1 0 2 0;
#X connect 3 0 6 0;
#X connect 4 0 0 0;
#X connect 5 0 7 0;
#X connect 6 0 9 0;
#X connect 7 0 8 0;
#X connect 7 1 8 1;
#X connect 7 2 8 2;
#X connect 7 3 8 3;
#X connect 7 4 9 1;
#X connect 8 0 0 1;
#X connect 8 0 1 0;
#X connect 9 0 10 0;
#X connect 9 0 11 0;
#X coords 0 -1 1 1 68 31 2 67 38;
#X restore 165 213 pd listComp;
#N canvas 99 562 214 210 listComp 0;
#X obj 5 19 list-compare;
#X obj 85 19 list-l2s;
#X symbolatom 85 46 8 0 0 0 - - hide1;
#X obj 67 46 tgl 16 0 hides hider empty 17 7 0 10 -262144 -1 -1 0 1
;
#X obj 5 -41 inlet;
#X obj 85 -41 inlet;
#X obj 67 71 sel 1;
#X obj 85 -22 unpack f f f f f;
#X obj 85 -3 pack f f f f;
#X obj 163 110 f;
#X floatatom 163 136 5 0 0 0 - - -;
#X obj 120 136 outlet;
#X connect 0 0 3 0;
#X connect 1 0 2 0;
#X connect 3 0 6 0;
#X connect 4 0 0 0;
#X connect 5 0 7 0;
#X connect 6 0 9 0;
#X connect 7 0 8 0;
#X connect 7 1 8 1;
#X connect 7 2 8 2;
#X connect 7 3 8 3;
#X connect 7 4 9 1;
#X connect 8 0 0 1;
#X connect 8 0 1 0;
#X connect 9 0 10 0;
#X connect 9 0 11 0;
#X coords 0 -1 1 1 68 31 2 67 38;
#X restore 257 213 pd listComp;
#N canvas 99 562 214 210 listComp 0;
#X obj 5 19 list-compare;
#X obj 85 19 list-l2s;
#X symbolatom 85 46 8 0 0 0 - - hide1;
#X obj 67 46 tgl 16 0 hides hider empty 17 7 0 10 -262144 -1 -1 0 1
;
#X obj 5 -41 inlet;
#X obj 85 -41 inlet;
#X obj 67 71 sel 1;
#X obj 85 -22 unpack f f f f f;
#X obj 85 -3 pack f f f f;
#X obj 163 110 f;
#X floatatom 163 136 5 0 0 0 - - -;
#X obj 120 136 outlet;
#X connect 0 0 3 0;
#X connect 1 0 2 0;
#X connect 3 0 6 0;
#X connect 4 0 0 0;
#X connect 5 0 7 0;
#X connect 6 0 9 0;
#X connect 7 0 8 0;
#X connect 7 1 8 1;
#X connect 7 2 8 2;
#X connect 7 3 8 3;
#X connect 7 4 9 1;
#X connect 8 0 0 1;
#X connect 8 0 1 0;
#X connect 9 0 10 0;
#X connect 9 0 11 0;
#X coords 0 -1 1 1 68 31 2 67 38;
#X restore 356 213 pd listComp;
#X text 90 7 TrumChuk mapping;
#N canvas 99 562 214 210 listComp 0;
#X obj 5 19 list-compare;
#X obj 85 19 list-l2s;
#X symbolatom 85 46 8 0 0 0 - - hide1;
#X obj 67 46 tgl 16 0 hides hider empty 17 7 0 10 -262144 -1 -1 0 1
;
#X obj 5 -41 inlet;
#X obj 85 -41 inlet;
#X obj 67 71 sel 1;
#X obj 85 -22 unpack f f f f f;
#X obj 85 -3 pack f f f f;
#X obj 163 110 f;
#X floatatom 163 136 5 0 0 0 - - -;
#X obj 120 136 outlet;
#X connect 0 0 3 0;
#X connect 1 0 2 0;
#X connect 3 0 6 0;
#X connect 4 0 0 0;
#X connect 5 0 7 0;
#X connect 6 0 9 0;
#X connect 7 0 8 0;
#X connect 7 1 8 1;
#X connect 7 2 8 2;
#X connect 7 3 8 3;
#X connect 7 4 9 1;
#X connect 8 0 0 1;
#X connect 8 0 1 0;
#X connect 9 0 10 0;
#X connect 9 0 11 0;
#X coords 0 -1 1 1 68 31 2 67 38;
#X restore 67 284 pd listComp;
#N canvas 99 562 214 210 listComp 0;
#X obj 5 19 list-compare;
#X obj 85 19 list-l2s;
#X symbolatom 85 46 8 0 0 0 - - hide1;
#X obj 67 46 tgl 16 0 hides hider empty 17 7 0 10 -262144 -1 -1 0 1
;
#X obj 5 -41 inlet;
#X obj 85 -41 inlet;
#X obj 67 71 sel 1;
#X obj 85 -22 unpack f f f f f;
#X obj 85 -3 pack f f f f;
#X obj 163 110 f;
#X floatatom 163 136 5 0 0 0 - - -;
#X obj 120 136 outlet;
#X connect 0 0 3 0;
#X connect 1 0 2 0;
#X connect 3 0 6 0;
#X connect 4 0 0 0;
#X connect 5 0 7 0;
#X connect 6 0 9 0;
#X connect 7 0 8 0;
#X connect 7 1 8 1;
#X connect 7 2 8 2;
#X connect 7 3 8 3;
#X connect 7 4 9 1;
#X connect 8 0 0 1;
#X connect 8 0 1 0;
#X connect 9 0 10 0;
#X connect 9 0 11 0;
#X coords 0 -1 1 1 68 31 2 67 38;
#X restore 159 284 pd listComp;
#N canvas 99 562 214 210 listComp 0;
#X obj 5 19 list-compare;
#X obj 85 19 list-l2s;
#X symbolatom 85 46 8 0 0 0 - - hide1;
#X obj 67 46 tgl 16 0 hides hider empty 17 7 0 10 -262144 -1 -1 0 1
;
#X obj 5 -41 inlet;
#X obj 85 -41 inlet;
#X obj 67 71 sel 1;
#X obj 85 -22 unpack f f f f f;
#X obj 85 -3 pack f f f f;
#X obj 163 110 f;
#X floatatom 163 136 5 0 0 0 - - -;
#X obj 120 136 outlet;
#X connect 0 0 3 0;
#X connect 1 0 2 0;
#X connect 3 0 6 0;
#X connect 4 0 0 0;
#X connect 5 0 7 0;
#X connect 6 0 9 0;
#X connect 7 0 8 0;
#X connect 7 1 8 1;
#X connect 7 2 8 2;
#X connect 7 3 8 3;
#X connect 7 4 9 1;
#X connect 8 0 0 1;
#X connect 8 0 1 0;
#X connect 9 0 10 0;
#X connect 9 0 11 0;
#X coords 0 -1 1 1 68 31 2 67 38;
#X restore 257 284 pd listComp;
#N canvas 99 562 214 210 listComp 0;
#X obj 5 19 list-compare;
#X obj 85 19 list-l2s;
#X symbolatom 85 46 8 0 0 0 - - hide1;
#X obj 67 46 tgl 16 0 hides hider empty 17 7 0 10 -262144 -1 -1 0 1
;
#X obj 5 -41 inlet;
#X obj 85 -41 inlet;
#X obj 67 71 sel 1;
#X obj 85 -22 unpack f f f f f;
#X obj 85 -3 pack f f f f;
#X obj 163 110 f;
#X floatatom 163 136 5 0 0 0 - - -;
#X obj 120 136 outlet;
#X connect 0 0 3 0;
#X connect 1 0 2 0;
#X connect 3 0 6 0;
#X connect 4 0 0 0;
#X connect 5 0 7 0;
#X connect 6 0 9 0;
#X connect 7 0 8 0;
#X connect 7 1 8 1;
#X connect 7 2 8 2;
#X connect 7 3 8 3;
#X connect 7 4 9 1;
#X connect 8 0 0 1;
#X connect 8 0 1 0;
#X connect 9 0 10 0;
#X connect 9 0 11 0;
#X coords 0 -1 1 1 68 31 2 67 38;
#X restore 349 284 pd listComp;
#N canvas 67 615 269 296 listComp 0;
#X obj 16 23 list-compare;
#X obj 16 -46 inlet;
#X obj 68 -46 inlet;
#X obj 16 205 outlet;
#X obj 95 48 list-compare;
#X obj 16 124 ||;
#X obj 16 84 bondo 2;
#X obj 68 -27 unpack f f f f f f f f f;
#X obj 85 -3 pack f f f f;
#X obj 164 -3 pack f f f f;
#X obj 16 154 spigot;
#X floatatom 68 130 5 0 0 0 - - -;
#X msg 68 175 0;
#X obj 68 155 sel 0;
#X connect 0 0 6 0;
#X connect 1 0 0 0;
#X connect 1 0 4 0;
#X connect 2 0 7 0;
#X connect 4 0 6 1;
#X connect 5 0 10 0;
#X connect 6 0 5 0;
#X connect 6 1 5 1;
#X connect 7 0 11 0;
#X connect 7 1 8 0;
#X connect 7 2 8 1;
#X connect 7 3 8 2;
#X connect 7 4 8 3;
#X connect 7 5 9 0;
#X connect 7 6 9 1;
#X connect 7 7 9 2;
#X connect 7 8 9 3;
#X connect 8 0 0 1;
#X connect 9 0 4 1;
#X connect 10 0 3 0;
#X connect 11 0 10 1;
#X connect 11 0 13 0;
#X connect 12 0 3 0;
#X connect 13 0 12 0;
#X coords 0 266 1 265 68 31 0;
#X restore -70 247 pd listComp;
#X msg 440 28 nA 1 2 0 4 69 \, nA# 1 0 0 4 70 \, nB 0 2 0 4 71 \, nC
0 0 0 0 60 \, nC# 1 2 3 0 61 \, nD 1 0 3 0 62 \, nD# 0 2 3 0 63 \,
nE 1 2 0 0 64 \, nF 1 0 0 0 65 \, nF# 0 2 0 0 66 \, nG 0 0 0 4 67 \,
nG# 0 2 3 4 68 \, nO 0;
#X msg 66 28 nA 1 0 0 0 57 \, nA# 1 0 0 4 58 \, nB 0 2 0 0 59 \, nC
0 0 3 0 60 \, nC# 0 0 3 4 61 \, nD 1 2 0 0 62 \, nD# 1 2 0 4 63 \,
nE 1 0 3 0 64 \, nF 0 2 3 0 65 \, nF# 0 2 3 4 66 \, nG 1 2 3 0 67 \,
nG# 1 2 3 4 68 \, nO 1 0 0 0 0 0 0 0 4;
#X connect 0 0 37 0;
#X connect 1 0 37 1;
#X connect 2 0 37 2;
#X connect 3 0 4 0;
#X connect 4 0 14 0;
#X connect 4 1 11 0;
#X connect 5 0 6 0;
#X connect 6 0 9 0;
#X connect 6 1 12 0;
#X connect 7 0 8 0;
#X connect 8 0 10 0;
#X connect 8 1 13 0;
#X connect 9 0 36 1;
#X connect 10 0 36 2;
#X connect 11 0 36 0;
#X connect 12 0 36 1;
#X connect 13 0 36 2;
#X connect 14 0 36 0;
#X connect 15 0 18 0;
#X connect 17 0 43 1;
#X connect 19 0 43 0;
#X connect 20 0 75 0;
#X connect 21 0 75 1;
#X connect 22 0 78 0;
#X connect 23 0 79 0;
#X connect 24 0 76 0;
#X connect 25 0 82 0;
#X connect 26 0 83 0;
#X connect 27 0 76 1;
#X connect 28 0 78 1;
#X connect 29 0 82 1;
#X connect 30 0 84 0;
#X connect 31 0 37 3;
#X connect 32 0 33 0;
#X connect 33 0 34 0;
#X connect 33 1 35 0;
#X connect 34 0 36 3;
#X connect 35 0 36 3;
#X connect 36 0 38 0;
#X connect 36 1 38 1;
#X connect 36 2 38 2;
#X connect 36 3 38 3;
#X connect 37 0 3 0;
#X connect 37 1 5 0;
#X connect 37 2 7 0;
#X connect 37 3 32 0;
#X connect 38 0 15 0;
#X connect 39 0 74 0;
#X connect 40 0 74 1;
#X connect 41 0 77 0;
#X connect 42 0 77 1;
#X connect 43 0 52 0;
#X connect 44 0 79 1;
#X connect 45 0 80 0;
#X connect 46 0 80 1;
#X connect 47 0 83 1;
#X connect 48 0 84 1;
#X connect 49 0 85 0;
#X connect 50 0 85 1;
#X connect 51 0 86 0;
#X connect 64 0 86 1;
#X connect 66 0 88 0;
#X connect 68 0 87 0;
#X connect 70 0 71 0;
#X connect 71 0 66 0;
#X connect 71 1 68 0;
#X connect 72 0 73 0;
#X connect 74 0 53 0;
#X connect 75 0 54 0;
#X connect 76 0 55 0;
#X connect 77 0 56 0;
#X connect 78 0 57 0;
#X connect 79 0 58 0;
#X connect 80 0 59 0;
#X connect 82 0 60 0;
#X connect 83 0 61 0;
#X connect 84 0 62 0;
#X connect 85 0 63 0;
#X connect 86 0 65 0;
#X connect 87 0 67 0;
#X connect 88 0 16 0;
#X restore 273 133 pd notes;
#X msg 34 122 roomsize \$1;
#X msg 34 167 damping \$1;
#X msg 34 211 width \$1;
#X msg 34 255 wet \$1;
#X msg 34 299 dry \$1;
#X obj 46 276 hsl 60 18 0 1 0 1 empty empty dry 2 9 1 12 -225271 -1
-1 5900 0;
#X obj 46 232 hsl 60 18 0 1 0 1 empty empty wet 2 9 1 12 -225271 -1
-1 4000 0;
#X obj 46 188 hsl 60 18 0 1 0 1 empty empty width 2 9 1 12 -262131
-1 -1 5200 0;
#X obj 46 144 hsl 60 18 0 2 0 1 empty empty damping 2 9 1 12 -261689
-1 -1 3000 0;
#X obj 46 99 hsl 60 18 0.11 1.1 0 1 empty empty roomsize 2 9 1 12 -261689
-1 -1 4400 0;
#X floatatom 16 103 3 0 0 0 - - -;
#X floatatom 16 148 3 0 0 0 - - -;
#X floatatom 16 193 3 0 0 0 - - -;
#X floatatom 16 236 3 0 0 0 - - -;
#X floatatom 16 280 3 0 0 0 - - -;
#X obj 36 346 s Verb;
#X msg 124 301 bypass \$1;
#X obj 125 278 tgl 15 0 empty empty empty 17 7 0 10 -262144 -1 -1 0
1;
#N canvas 773 282 483 374 micTrigger 0;
#X obj 147 -7 r MIC;
#X obj 147 31 line;
#X floatatom 20 114 5 0 0 0 - trigNumR trigNum;
#X obj 20 269 s mTrig;
#X obj 54 114 tgl 16 0 hide hider empty 17 7 0 10 -262144 -1 -1 0 1
;
#X obj 20 136 r trigNum;
#X obj 20 198 tgl 15 0 empty empty empty 17 7 0 10 -262144 -1 -1 0
1;
#X obj 147 50 last_n 5;
#X obj 147 69 sum;
#X obj 147 88 / 5;
#X floatatom 147 127 5 0 0 0 - - -;
#X obj 147 108 maxlib/scale 10 50 0 1;
#X msg 147 12 \$1 250;
#X obj 292 -26 r MIC;
#X obj 292 69 sum;
#X floatatom 292 127 5 0 0 0 - - -;
#X obj 292 31 debounce 25;
#X obj 292 108 maxlib/scale 10 60 0 1;
#X obj 292 88 / 15;
#X obj 292 50 last_n 15;
#X obj 292 12 line;
#X msg 292 -7 \$1 25;
#X obj 147 215 spigot;
#X obj 292 192 spigot;
#X obj 180 194 reverse;
#X obj 73 97 tgl 32 0 hidenS micTog TOG 7 16 0 10 -1 -261234 -262144
0 1;
#X obj 147 258 s trigNumR;
#X obj 20 177 > 0.3;
#X obj 13 -16 loadbang;
#X msg 13 4 \; micTog 0;
#X connect 0 0 12 0;
#X connect 1 0 7 0;
#X connect 5 0 27 0;
#X connect 6 0 3 0;
#X connect 6 0 4 0;
#X connect 7 0 8 0;
#X connect 8 0 9 0;
#X connect 9 0 11 0;
#X connect 10 0 22 0;
#X connect 11 0 10 0;
#X connect 12 0 1 0;
#X connect 13 0 21 0;
#X connect 14 0 18 0;
#X connect 15 0 23 0;
#X connect 16 0 19 0;
#X connect 17 0 15 0;
#X connect 18 0 17 0;
#X connect 19 0 14 0;
#X connect 20 0 16 0;
#X connect 21 0 20 0;
#X connect 22 0 26 0;
#X connect 23 0 26 0;
#X connect 24 0 22 1;
#X connect 25 0 24 0;
#X connect 25 0 23 1;
#X connect 27 0 6 0;
#X connect 28 0 29 0;
#X coords 0 -1 1 1 85 34 2 20 96;
#X restore 157 14 pd micTrigger;
#X obj 273 104 hradio 27 1 0 2 empty noteTog New_Trum 5 -4 0 10 -262144
-1 -1 0;
#X text 210 108 Note Mode:;
#N canvas 387 279 507 456 chukJoy 0;
#N canvas 660 683 133 151 flip 0;
#X obj 25 35 * 1;
#X floatatom 62 75 5 0 0 0 - - -;
#X obj 62 35 * -1;
#X obj 62 55 + 1;
#X floatatom 25 56 5 0 0 0 - - -;
#X obj 25 11 inlet;
#X obj 25 117 outlet;
#X obj 62 95 outlet;
#X connect 0 0 4 0;
#X connect 1 0 7 0;
#X connect 2 0 3 0;
#X connect 3 0 1 0;
#X connect 4 0 6 0;
#X connect 5 0 0 0;
#X connect 5 0 2 0;
#X restore -18 57 pd flip;
#X floatatom -18 77 5 0 0 0 - - -;
#X floatatom 25 77 5 0 0 0 - - -;
#N canvas 660 683 133 151 flip 0;
#X obj 25 35 * 1;
#X floatatom 62 75 5 0 0 0 - - -;
#X obj 62 35 * -1;
#X obj 62 55 + 1;
#X floatatom 25 56 5 0 0 0 - - -;
#X obj 25 11 inlet;
#X obj 25 117 outlet;
#X obj 62 95 outlet;
#X connect 0 0 4 0;
#X connect 1 0 7 0;
#X connect 2 0 3 0;
#X connect 3 0 1 0;
#X connect 4 0 6 0;
#X connect 5 0 0 0;
#X connect 5 0 2 0;
#X restore 162 56 pd flip;
#X floatatom 162 77 5 0 0 0 - - -;
#X floatatom 205 77 5 0 0 0 - - -;
#X obj -18 97 s xPlu;
#X obj 25 97 s xNeg;
#X obj 162 97 s yPlu;
#X obj 205 97 s yNeg;
#X obj -18 9 r xJOY;
#X obj 162 9 r yJOY;
#X obj 51 142 vsl 69 64 0 1 0 0 hidenS yJoyR Y 28 35 0 20 -1 -261234
-262144 3151 1;
#X obj -17 140 hsl 64 69 0 1 0 0 hidenS xJoyR X 28 35 0 20 -1 -261234
-262144 3151 1;
#X obj 162 30 maxlib/scale 12.75 216.7 0 1;
#X obj -18 30 maxlib/scale 12.75 216.7 0 1;
#X obj 31 57 s xJoyR;
#X obj 211 55 s yJoyR;
#X connect 0 0 1 0;
#X connect 0 1 2 0;
#X connect 1 0 6 0;
#X connect 2 0 7 0;
#X connect 3 0 4 0;
#X connect 3 1 5 0;
#X connect 4 0 8 0;
#X connect 5 0 9 0;
#X connect 10 0 15 0;
#X connect 11 0 14 0;
#X connect 14 0 3 0;
#X connect 14 0 17 0;
#X connect 15 0 0 0;
#X connect 15 0 16 0;
#X coords 0 -1 1 1 140 69 1 -20 140;
#X restore 15 14 pd chukJoy;
#N canvas 986 218 523 781 TrumChuk 0;
#X floatatom 92 113 5 0 0 0 - - -;
#X obj 92 132 mtof;
#X obj 92 38 f;
#X obj 92 -2 sel 1;
#X obj 107 18 r nSel;
#N canvas 1196 421 238 281 volume 0;
#X obj 10 149 sig~;
#X obj 10 169 lop~ 5;
#X obj 10 129 line;
#X msg 10 108 \$1 25;
#X obj 10 188 outlet~;
#X obj 74 188 outlet;
#X obj 75 131 line;
#X msg 75 110 \$1 100;
#X floatatom 75 170 5 0 0 0 - - -;
#X obj 75 150 * 2000;
#X obj 10 52 reverse;
#X obj 10 8 r yTILT;
#X obj 10 29 maxlib/scale 0 255 0 1;
#X connect 0 0 1 0;
#X connect 1 0 4 0;
#X connect 2 0 0 0;
#X connect 3 0 2 0;
#X connect 6 0 9 0;
#X connect 7 0 6 0;
#X connect 8 0 5 0;
#X connect 9 0 8 0;
#X connect 10 0 3 0;
#X connect 10 0 7 0;
#X connect 11 0 12 0;
#X connect 12 0 10 0;
#X restore 127 498 pd volume;
#X obj 92 616 lop~ 2000;
#X obj 92 498 *~;
#X obj 92 732 dac~;
#X obj 35 616 r Verb;
#X obj 107 276 vline~;
#X obj 107 236 sel 1;
#X obj 92 356 *~;
#X obj 92 686 freeverb~;
#X obj 92 93 + \$1;
#X obj 107 216 r mTrig;
#X obj 92 -22 r mTrig;
#X msg 107 256 1 50 \, 0 50 50;
#X obj 92 707 hip~ 5;
#X obj 143 707 hip~ 5;
#N canvas 952 467 274 302 buttonLogic 0;
#X obj 23 17 r BTNZ;
#X obj 97 17 r BTNC;
#X msg 97 173 12;
#X msg 23 173 -12;
#X floatatom 23 90 5 0 0 0 - - -;
#X floatatom 60 90 5 0 0 0 - - -;
#X floatatom 97 90 5 0 0 0 - - -;
#X msg 60 173 0;
#X obj 23 154 sel 1;
#X obj 60 154 sel 1;
#X obj 97 154 sel 1;
#X floatatom 133 90 5 0 0 0 - - -;
#X obj 134 70 &&;
#X obj 60 52 ||;
#X obj 60 71 reverse;
#X obj 60 228 spigot;
#X obj 23 265 outlet;
#X obj 134 154 reverse;
#X obj 153 229 outlet;
#X obj 153 209 spigot;
#X obj 210 188 outlet;
#X connect 0 0 4 0;
#X connect 0 0 13 0;
#X connect 0 0 12 0;
#X connect 1 0 6 0;
#X connect 1 0 13 1;
#X connect 1 0 12 1;
#X connect 2 0 15 0;
#X connect 2 0 19 0;
#X connect 3 0 16 0;
#X connect 4 0 8 0;
#X connect 5 0 9 0;
#X connect 6 0 10 0;
#X connect 7 0 15 0;
#X connect 8 0 3 0;
#X connect 9 0 7 0;
#X connect 10 0 2 0;
#X connect 11 0 17 0;
#X connect 11 0 19 1;
#X connect 12 0 11 0;
#X connect 13 0 14 0;
#X connect 14 0 5 0;
#X connect 15 0 16 0;
#X connect 17 0 15 1;
#X connect 17 0 20 0;
#X connect 19 0 18 0;
#X restore 183 51 pd buttonLogic;
#X floatatom 202 113 5 0 0 0 - - -;
#X obj 202 132 mtof;
#X obj 202 615 lop~ 2000;
#X obj 202 497 *~;
#X obj 202 355 *~;
#X obj 202 93 + \$1;
#X obj 202 152 phasor~;
#N canvas 1031 515 572 394 Zsynth 0;
#X obj 51 306 hsl 128 15 0 1 0 1 empty empty empty -2 -8 0 10 -262144
-1 -1 127 1;
#X obj 17 20 inlet freq;
#X obj 17 367 outlet~;
#X obj 48 257 sel 0 1;
#N canvas 548 507 110 143 clipProcess 0;
#X obj 10 54 - 1;
#X floatatom 10 74 5 0 0 0 - - -;
#X obj 10 34 reverse;
#X obj 45 6 inlet;
#X floatatom 45 74 5 0 0 0 - - -;
#X obj 10 113 outlet;
#X obj 45 93 outlet;
#X connect 0 0 1 0;
#X connect 1 0 5 0;
#X connect 2 0 0 0;
#X connect 3 0 2 0;
#X connect 3 0 4 0;
#X connect 4 0 6 0;
#X restore 48 324 pd clipProcess;
#X obj 79 44 * -1;
#X obj 17 75 phasor~;
#X obj 79 75 phasor~;
#X obj 17 95 *~ 2;
#X obj 17 115 -~ 1;
#X obj 17 135 clip~ 0 1;
#X obj 79 95 *~ 2;
#X obj 79 115 -~ 1;
#X obj 79 135 clip~ 0 1;
#X obj 17 158 +~;
#X text 144 42 phase synchronization;
#X obj 17 346 clip~ \$1 \$2;
#N canvas 1005 533 153 165 clipTimings 0;
#X obj 58 74 line;
#X obj 72 -18 t b b;
#X obj 99 21 once;
#X obj 5 -38 inlet zero;
#X obj 72 -38 inlet one;
#X obj 58 95 outlet;
#X msg 58 42 1 500;
#X msg 99 42 0.1;
#X msg 5 42 0.01 250;
#X connect 0 0 5 0;
#X connect 1 0 6 0;
#X connect 1 1 2 0;
#X connect 2 0 7 0;
#X connect 3 0 8 0;
#X connect 3 0 2 1;
#X connect 4 0 1 0;
#X connect 6 0 0 0;
#X connect 7 0 0 0;
#X connect 8 0 0 0;
#X restore 48 286 pd clipTimings;
#X obj 118 20 loadbang;
#X msg 118 43 0;
#X obj 283 79 r xJOYScaled;
#X obj 311 143 r xJOYScaled;
#X obj 48 236 r mTrig;
#X connect 0 0 4 0;
#X connect 1 0 6 0;
#X connect 1 0 5 0;
#X connect 3 0 17 0;
#X connect 3 1 17 1;
#X connect 4 0 16 1;
#X connect 4 1 16 2;
#X connect 5 0 7 0;
#X connect 6 0 8 0;
#X connect 7 0 11 0;
#X connect 8 0 9 0;
#X connect 9 0 10 0;
#X connect 10 0 14 0;
#X connect 11 0 12 0;
#X connect 12 0 13 0;
#X connect 13 0 14 1;
#X connect 14 0 16 0;
#X connect 16 0 2 0;
#X connect 17 0 0 0;
#X connect 18 0 19 0;
#X connect 19 0 7 1;
#X connect 19 0 6 1;
#X connect 22 0 3 0;
#X restore -65 52 pd Zsynth;
#X obj 202 192 tabread4~ outWave;
#X obj 92 152 phasor~;
#X obj 92 192 tabread4~ outWave;
#X obj 202 246 spigot~;
#X obj 92 172 expr~ $v1*515+1;
#X obj 202 172 expr~ $v1*515+1;
#N canvas 1043 572 201 134 spatialiser 0;
#X obj 11 -29 inlet~;
#X obj 60 -29 inlet~;
#X obj 11 56 outlet~;
#X obj 60 56 outlet~;
#X obj 111 -13 samplerate~;
#X obj 111 -41 loadbang;
#X obj 60 35 delay~ \$1;
#X obj 111 14 * 0.015;
#X obj 167 -39 bng 15 250 50 0 empty empty empty 17 7 0 10 -262144
-1 -1;
#X connect 0 0 2 0;
#X connect 0 0 6 0;
#X connect 1 0 6 0;
#X connect 1 0 2 0;
#X connect 4 0 7 0;
#X connect 5 0 4 0;
#X connect 6 0 3 0;
#X connect 7 0 6 1;
#X connect 8 0 4 0;
#X restore 92 643 pd spatialiser;
#X obj 107 442 vline~;
#X obj 107 381 r nOtog;
#X obj 92 580 *~;
#X obj 202 579 *~;
#X obj 107 401 sel 1;
#X msg 107 421 0 50;
#X msg 146 421 1 50;
#X connect 0 0 1 0;
#X connect 1 0 30 0;
#X connect 2 0 14 0;
#X connect 2 0 26 0;
#X connect 3 0 2 0;
#X connect 4 0 2 1;
#X connect 5 0 38 1;
#X connect 5 0 39 1;
#X connect 5 1 6 1;
#X connect 5 1 23 1;
#X connect 6 0 35 0;
#X connect 7 0 38 0;
#X connect 9 0 13 0;
#X connect 10 0 12 1;
#X connect 10 0 25 1;
#X connect 11 0 17 0;
#X connect 12 0 7 0;
#X connect 13 0 18 0;
#X connect 13 1 19 0;
#X connect 14 0 0 0;
#X connect 15 0 11 0;
#X connect 16 0 3 0;
#X connect 17 0 10 0;
#X connect 18 0 8 0;
#X connect 19 0 8 1;
#X connect 20 0 14 1;
#X connect 20 1 26 1;
#X connect 20 2 32 1;
#X connect 21 0 22 0;
#X connect 22 0 27 0;
#X connect 23 0 35 1;
#X connect 24 0 39 0;
#X connect 25 0 24 0;
#X connect 26 0 21 0;
#X connect 27 0 34 0;
#X connect 29 0 32 0;
#X connect 30 0 33 0;
#X connect 31 0 12 0;
#X connect 32 0 25 0;
#X connect 33 0 31 0;
#X connect 34 0 29 0;
#X connect 35 0 13 0;
#X connect 35 1 13 1;
#X connect 36 0 7 1;
#X connect 36 0 24 1;
#X connect 37 0 40 0;
#X connect 38 0 6 0;
#X connect 39 0 23 0;
#X connect 40 0 41 0;
#X connect 40 1 42 0;
#X connect 41 0 36 0;
#X connect 42 0 36 0;
#X restore 157 50 pd TrumChuk;
#N canvas 653 541 281 105 waveforms 0;
#X obj 18 20 table wave1 515;
#X obj 18 39 table wave2 515;
#X obj 18 58 table wave3 515;
#X obj 18 77 table wave4 515;
#N canvas 960 273 615 352 waveGen1 0;
#N canvas 232 474 552 485 randomWaveGen 0;
#X floatatom 7 336 5 0 0 0 - - -;
#X floatatom 44 306 5 0 0 0 - - -;
#X floatatom 78 306 5 0 0 0 - - -;
#X floatatom 113 304 5 0 0 0 - - -;
#X floatatom 147 304 5 0 0 0 - - -;
#X floatatom 183 304 5 0 0 0 - - -;
#X floatatom 218 304 5 0 0 0 - - -;
#X floatatom 253 304 5 0 0 0 - - -;
#X floatatom 287 304 5 0 0 0 - - -;
#X floatatom 8 234 5 0 0 0 - - -;
#X obj 214 -44 inlet bang;
#X obj 7 410 outlet;
#X floatatom 322 304 5 0 0 0 - - -;
#X floatatom 357 304 5 0 0 0 - - -;
#X floatatom 392 304 5 0 0 0 - - -;
#X obj 8 213 random 100;
#X obj 7 388 pack f f f f f f f f f f f f;
#X obj 7 360 bondo 12 -------------------;
#X obj 98 118 f;
#X obj 154 94 bng 15 250 50 0 empty empty empty 17 7 0 10 -262144 -1
-1;
#X obj 124 118 + 1;
#X obj 98 159 pack f f;
#X obj 154 71 until;
#X msg 154 51 11;
#X obj 8 193 sel 1;
#X obj 99 196 route 0 1 2 3 4 5 6 7 8 9 10 11;
#X obj 98 139 mod 12;
#X obj 8 172 == 11;
#X obj 9 285 *;
#X obj 44 285 *;
#X obj 81 284 *;
#X obj 113 284 *;
#X obj 147 284 *;
#X obj 183 284 *;
#X obj 218 284 *;
#X obj 253 284 *;
#X obj 287 284 *;
#X obj 323 284 *;
#X obj 357 284 *;
#X obj 392 284 *;
#X msg 115 -1 0;
#X obj 115 -23 loadbang;
#X obj 143 139 shuffle 0 100;
#X obj 265 85 f;
#X obj 291 85 + 1;
#X obj 265 126 pack f f;
#X obj 327 49 bng 15 250 50 0 empty empty empty 17 7 0 10 -262144 -1
-1;
#X obj 440 231 /;
#X obj 395 231 /;
#X obj 356 231 /;
#X obj 317 230 /;
#X obj 276 231 /;
#X obj 240 231 /;
#X obj 209 231 /;
#X obj 177 231 /;
#X obj 151 231 /;
#X obj 125 231 /;
#X obj 99 231 /;
#X obj 265 147 route 0 1 2 3 4 5 6 7 8 9 10;
#X obj 265 106 mod 11;
#X obj 214 -24 t b b;
#X obj 329 29 until;
#X msg 329 9 10;
#X obj 310 106 shuffle 0 12;
#X obj 7 310 - 420;
#X connect 0 0 17 0;
#X connect 1 0 17 1;
#X connect 2 0 17 2;
#X connect 3 0 17 3;
#X connect 4 0 17 4;
#X connect 5 0 17 5;
#X connect 6 0 17 6;
#X connect 7 0 17 7;
#X connect 8 0 17 8;
#X connect 9 0 28 0;
#X connect 9 0 29 0;
#X connect 9 0 30 0;
#X connect 9 0 31 0;
#X connect 9 0 32 0;
#X connect 9 0 33 0;
#X connect 9 0 34 0;
#X connect 9 0 35 0;
#X connect 9 0 36 0;
#X connect 9 0 37 0;
#X connect 9 0 38 0;
#X connect 9 0 39 0;
#X connect 10 0 60 0;
#X connect 12 0 17 9;
#X connect 13 0 17 10;
#X connect 14 0 17 11;
#X connect 15 0 9 0;
#X connect 16 0 11 0;
#X connect 17 0 16 0;
#X connect 17 1 16 1;
#X connect 17 2 16 2;
#X connect 17 3 16 3;
#X connect 17 4 16 4;
#X connect 17 5 16 5;
#X connect 17 6 16 6;
#X connect 17 7 16 7;
#X connect 17 8 16 8;
#X connect 17 9 16 9;
#X connect 17 10 16 10;
#X connect 17 11 16 11;
#X connect 18 0 20 0;
#X connect 18 0 26 0;
#X connect 19 0 18 0;
#X connect 19 0 42 0;
#X connect 20 0 18 1;
#X connect 21 0 25 0;
#X connect 22 0 19 0;
#X connect 23 0 22 0;
#X connect 24 0 15 0;
#X connect 25 0 28 1;
#X connect 25 1 57 0;
#X connect 25 2 56 0;
#X connect 25 3 55 0;
#X connect 25 4 54 0;
#X connect 25 5 53 0;
#X connect 25 6 52 0;
#X connect 25 7 51 0;
#X connect 25 8 50 0;
#X connect 25 9 49 0;
#X connect 25 10 48 0;
#X connect 25 11 47 0;
#X connect 26 0 21 0;
#X connect 26 0 27 0;
#X connect 27 0 24 0;
#X connect 28 0 64 0;
#X connect 29 0 1 0;
#X connect 30 0 2 0;
#X connect 31 0 3 0;
#X connect 32 0 4 0;
#X connect 33 0 5 0;
#X connect 34 0 6 0;
#X connect 35 0 7 0;
#X connect 36 0 8 0;
#X connect 37 0 12 0;
#X connect 38 0 13 0;
#X connect 39 0 14 0;
#X connect 40 0 18 1;
#X connect 40 0 43 1;
#X connect 41 0 40 0;
#X connect 42 0 21 1;
#X connect 43 0 44 0;
#X connect 43 0 59 0;
#X connect 44 0 43 1;
#X connect 45 0 58 0;
#X connect 46 0 43 0;
#X connect 46 0 63 0;
#X connect 47 0 39 1;
#X connect 48 0 38 1;
#X connect 49 0 37 1;
#X connect 50 0 36 1;
#X connect 51 0 35 1;
#X connect 52 0 34 1;
#X connect 53 0 33 1;
#X connect 54 0 32 1;
#X connect 55 0 31 1;
#X connect 56 0 30 1;
#X connect 57 0 29 1;
#X connect 58 0 57 1;
#X connect 58 1 56 1;
#X connect 58 2 55 1;
#X connect 58 3 54 1;
#X connect 58 4 53 1;
#X connect 58 5 52 1;
#X connect 58 6 51 1;
#X connect 58 7 50 1;
#X connect 58 8 49 1;
#X connect 58 9 48 1;
#X connect 58 10 47 1;
#X connect 59 0 45 0;
#X connect 60 0 23 0;
#X connect 60 1 62 0;
#X connect 61 0 46 0;
#X connect 62 0 61 0;
#X connect 63 0 45 1;
#X connect 64 0 0 0;
#X restore 173 33 pd randomWaveGen;
#X obj 173 14 bng 15 250 50 0 empty empty empty 17 7 0 10 -262144 -1
-1;
#X obj 17 19 table atk1 515;
#X obj 17 38 table sus1 515;
#X obj 31 80 r mTrig;
#X obj 31 102 sel 0 1;
#X msg 31 125 0;
#X msg 61 125 512;
#X obj 31 188 line~;
#X obj 31 250 tabread~ hanning;
#X obj 156 249 tabread~ hanning;
#N canvas 900 668 224 115 RW-arrays 0;
#X obj 8 8 block~ 512;
#X obj 61 48 inlet~;
#X obj 167 48 inlet~;
#X obj 8 28 tabreceive~ atk1;
#X obj 114 28 tabreceive~ sus1;
#X obj 8 68 expr~ ($v1*$v2) + ($v3*$v4);
#X obj 8 89 outlet~;
#X connect 1 0 5 1;
#X connect 2 0 5 3;
#X connect 3 0 5 0;
#X connect 4 0 5 2;
#X connect 5 0 6 0;
#X restore 31 287 pd RW-arrays;
#N canvas 663 651 114 77 write 0;
#X obj 4 24 inlet~;
#X obj 4 4 block~ 515;
#X obj 4 45 tabsend~ wave1;
#X connect 0 0 2 0;
#X restore 31 308 pd write;
#X obj 192 12 r newWave;
#X msg 173 55 \; atk1 sinesum 512 \$1 \$2 \$3 \$4 \$5 \$6 \$7 \$8 \$9
\$10 \$11 \$12 \; atk1 normalize \;;
#X obj 31 222 +~ 512;
#X msg 31 163 \$1 250;
#X obj 156 223 +~ 0;
#X msg 110 101 \; sus1 sinesum 512 \$1 \$2 \$3 \$4 \$5 \$6 \$7 \$8
\; sus1 normalize \;;
#X connect 0 0 14 0;
#X connect 0 0 18 0;
#X connect 1 0 0 0;
#X connect 4 0 5 0;
#X connect 5 0 6 0;
#X connect 5 1 7 0;
#X connect 6 0 16 0;
#X connect 7 0 16 0;
#X connect 8 0 15 0;
#X connect 8 0 17 0;
#X connect 9 0 11 0;
#X connect 10 0 11 1;
#X connect 11 0 12 0;
#X connect 13 0 0 0;
#X connect 15 0 9 0;
#X connect 16 0 8 0;
#X connect 17 0 10 0;
#X restore 114 20 pd waveGen1;
#N canvas 854 561 181 191 windowGen 0;
#X obj 9 8 loadbang;
#X obj 9 28 bng 15 250 50 0 empty empty empty 17 7 0 10 -262144 -1
-1;
#X obj 18 51 samplerate~;
#X obj 18 95 osc~;
#X msg 92 51 0;
#X obj 18 116 *~ -0.5;
#X obj 18 136 +~ 0.5;
#X obj 9 158 tabwrite~ hanning;
#X obj 66 8 table hanning 1027;
#X obj 18 73 / 1027;
#X connect 0 0 1 0;
#X connect 1 0 4 0;
#X connect 1 0 2 0;
#X connect 1 0 7 0;
#X connect 2 0 9 0;
#X connect 3 0 5 0;
#X connect 4 0 3 1;
#X connect 5 0 6 0;
#X connect 6 0 7 0;
#X connect 9 0 3 0;
#X restore 186 20 pd windowGen;
#N canvas 348 237 577 334 waveGen2 0;
#X obj 7 19 table atk2 515;
#X obj 7 38 table sus2 515;
#X obj 25 74 r mTrig;
#X obj 25 96 sel 0 1;
#X msg 25 119 0;
#X msg 55 119 512;
#X msg 25 157 \$1 250;
#X obj 25 182 line~;
#X obj 25 244 tabread~ hanning;
#X obj 150 243 tabread~ hanning;
#N canvas 900 668 224 115 RW-arrays 0;
#X obj 8 8 block~ 512;
#X obj 61 48 inlet~;
#X obj 167 48 inlet~;
#X obj 8 68 expr~ ($v1*$v2) + ($v3*$v4);
#X obj 8 89 outlet~;
#X obj 8 28 tabreceive~ atk2;
#X obj 114 28 tabreceive~ sus2;
#X connect 1 0 3 1;
#X connect 2 0 3 3;
#X connect 3 0 4 0;
#X connect 5 0 3 0;
#X connect 6 0 3 2;
#X restore 25 281 pd RW-arrays;
#N canvas 663 651 114 77 write 0;
#X obj 4 24 inlet~;
#X obj 4 4 block~ 515;
#X obj 4 45 tabsend~ wave2;
#X connect 0 0 2 0;
#X restore 25 302 pd write;
#X obj 25 216 +~ 512;
#X obj 150 217 +~ 0;
#X obj 183 24 bng 15 250 50 0 empty empty empty 17 7 0 10 -262144 -1
-1;
#X obj 202 22 r newWave;
#X msg 183 65 \; atk2 sinesum 512 \$1 \$2 \$3 \$4 \$5 \$6 \$7 \$8 \$9
\$10 \$11 \$12 \; atk2 normalize \;;
#X msg 120 111 \; sus2 sinesum 512 \$1 \$2 \$3 \$4 \$5 \$6 \$7 \$8
\; sus2 normalize \;;
#N canvas 232 474 552 485 randomWaveGen 0;
#X floatatom 7 333 5 0 0 0 - - -;
#X floatatom 44 306 5 0 0 0 - - -;
#X floatatom 78 306 5 0 0 0 - - -;
#X floatatom 113 304 5 0 0 0 - - -;
#X floatatom 147 304 5 0 0 0 - - -;
#X floatatom 183 304 5 0 0 0 - - -;
#X floatatom 218 304 5 0 0 0 - - -;
#X floatatom 253 304 5 0 0 0 - - -;
#X floatatom 287 304 5 0 0 0 - - -;
#X floatatom 8 234 5 0 0 0 - - -;
#X obj 214 -44 inlet bang;
#X obj 7 410 outlet;
#X floatatom 322 304 5 0 0 0 - - -;
#X floatatom 357 304 5 0 0 0 - - -;
#X floatatom 392 304 5 0 0 0 - - -;
#X obj 8 213 random 100;
#X obj 7 388 pack f f f f f f f f f f f f;
#X obj 7 360 bondo 12 -------------------;
#X obj 98 118 f;
#X obj 154 94 bng 15 250 50 0 empty empty empty 17 7 0 10 -262144 -1
-1;
#X obj 124 118 + 1;
#X obj 98 159 pack f f;
#X obj 154 71 until;
#X msg 154 51 11;
#X obj 8 193 sel 1;
#X obj 99 196 route 0 1 2 3 4 5 6 7 8 9 10 11;
#X obj 98 139 mod 12;
#X obj 8 172 == 11;
#X obj 9 285 *;
#X obj 44 285 *;
#X obj 81 284 *;
#X obj 113 284 *;
#X obj 147 284 *;
#X obj 183 284 *;
#X obj 218 284 *;
#X obj 253 284 *;
#X obj 287 284 *;
#X obj 323 284 *;
#X obj 357 284 *;
#X obj 392 284 *;
#X msg 115 -1 0;
#X obj 115 -23 loadbang;
#X obj 143 139 shuffle 0 100;
#X obj 265 85 f;
#X obj 291 85 + 1;
#X obj 265 126 pack f f;
#X obj 327 49 bng 15 250 50 0 empty empty empty 17 7 0 10 -262144 -1
-1;
#X obj 440 231 /;
#X obj 395 231 /;
#X obj 356 231 /;
#X obj 317 230 /;
#X obj 276 231 /;
#X obj 240 231 /;
#X obj 209 231 /;
#X obj 177 231 /;
#X obj 151 231 /;
#X obj 125 231 /;
#X obj 99 231 /;
#X obj 265 147 route 0 1 2 3 4 5 6 7 8 9 10;
#X obj 265 106 mod 11;
#X obj 214 -24 t b b;
#X obj 329 29 until;
#X msg 329 9 10;
#X obj 310 106 shuffle 0 12;
#X obj -13 307 pow 0.13;
#X connect 0 0 17 0;
#X connect 1 0 17 1;
#X connect 2 0 17 2;
#X connect 3 0 17 3;
#X connect 4 0 17 4;
#X connect 5 0 17 5;
#X connect 6 0 17 6;
#X connect 7 0 17 7;
#X connect 8 0 17 8;
#X connect 9 0 28 0;
#X connect 9 0 29 0;
#X connect 9 0 30 0;
#X connect 9 0 31 0;
#X connect 9 0 32 0;
#X connect 9 0 33 0;
#X connect 9 0 34 0;
#X connect 9 0 35 0;
#X connect 9 0 36 0;
#X connect 9 0 37 0;
#X connect 9 0 38 0;
#X connect 9 0 39 0;
#X connect 10 0 60 0;
#X connect 12 0 17 9;
#X connect 13 0 17 10;
#X connect 14 0 17 11;
#X connect 15 0 9 0;
#X connect 16 0 11 0;
#X connect 17 0 16 0;
#X connect 17 1 16 1;
#X connect 17 2 16 2;
#X connect 17 3 16 3;
#X connect 17 4 16 4;
#X connect 17 5 16 5;
#X connect 17 6 16 6;
#X connect 17 7 16 7;
#X connect 17 8 16 8;
#X connect 17 9 16 9;
#X connect 17 10 16 10;
#X connect 17 11 16 11;
#X connect 18 0 20 0;
#X connect 18 0 26 0;
#X connect 19 0 18 0;
#X connect 19 0 42 0;
#X connect 20 0 18 1;
#X connect 21 0 25 0;
#X connect 22 0 19 0;
#X connect 23 0 22 0;
#X connect 24 0 15 0;
#X connect 25 0 28 1;
#X connect 25 1 57 0;
#X connect 25 2 56 0;
#X connect 25 3 55 0;
#X connect 25 4 54 0;
#X connect 25 5 53 0;
#X connect 25 6 52 0;
#X connect 25 7 51 0;
#X connect 25 8 50 0;
#X connect 25 9 49 0;
#X connect 25 10 48 0;
#X connect 25 11 47 0;
#X connect 26 0 21 0;
#X connect 26 0 27 0;
#X connect 27 0 24 0;
#X connect 28 0 64 0;
#X connect 29 0 1 0;
#X connect 30 0 2 0;
#X connect 31 0 3 0;
#X connect 32 0 4 0;
#X connect 33 0 5 0;
#X connect 34 0 6 0;
#X connect 35 0 7 0;
#X connect 36 0 8 0;
#X connect 37 0 12 0;
#X connect 38 0 13 0;
#X connect 39 0 14 0;
#X connect 40 0 18 1;
#X connect 40 0 43 1;
#X connect 41 0 40 0;
#X connect 42 0 21 1;
#X connect 43 0 44 0;
#X connect 43 0 59 0;
#X connect 44 0 43 1;
#X connect 45 0 58 0;
#X connect 46 0 43 0;
#X connect 46 0 63 0;
#X connect 47 0 39 1;
#X connect 48 0 38 1;
#X connect 49 0 37 1;
#X connect 50 0 36 1;
#X connect 51 0 35 1;
#X connect 52 0 34 1;
#X connect 53 0 33 1;
#X connect 54 0 32 1;
#X connect 55 0 31 1;
#X connect 56 0 30 1;
#X connect 57 0 29 1;
#X connect 58 0 57 1;
#X connect 58 1 56 1;
#X connect 58 2 55 1;
#X connect 58 3 54 1;
#X connect 58 4 53 1;
#X connect 58 5 52 1;
#X connect 58 6 51 1;
#X connect 58 7 50 1;
#X connect 58 8 49 1;
#X connect 58 9 48 1;
#X connect 58 10 47 1;
#X connect 59 0 45 0;
#X connect 60 0 23 0;
#X connect 60 1 62 0;
#X connect 61 0 46 0;
#X connect 62 0 61 0;
#X connect 63 0 45 1;
#X connect 64 0 0 0;
#X restore 183 43 pd randomWaveGen;
#X connect 2 0 3 0;
#X connect 3 0 4 0;
#X connect 3 1 5 0;
#X connect 4 0 6 0;
#X connect 5 0 6 0;
#X connect 6 0 7 0;
#X connect 7 0 12 0;
#X connect 7 0 13 0;
#X connect 8 0 10 0;
#X connect 9 0 10 1;
#X connect 10 0 11 0;
#X connect 12 0 8 0;
#X connect 13 0 9 0;
#X connect 14 0 18 0;
#X connect 15 0 18 0;
#X connect 18 0 16 0;
#X connect 18 0 17 0;
#X restore 114 39 pd waveGen2;
#N canvas 178 598 580 364 waveGen3 0;
#X obj 35 84 r mTrig;
#X obj 35 106 sel 0 1;
#X msg 35 129 0;
#X msg 65 129 512;
#X msg 35 167 \$1 250;
#X obj 35 192 line~;
#X obj 35 254 tabread~ hanning;
#X obj 160 253 tabread~ hanning;
#N canvas 900 668 224 115 RW-arrays 0;
#X obj 8 8 block~ 512;
#X obj 61 48 inlet~;
#X obj 167 48 inlet~;
#X obj 8 68 expr~ ($v1*$v2) + ($v3*$v4);
#X obj 8 89 outlet~;
#X obj 8 28 tabreceive~ atk3;
#X obj 114 28 tabreceive~ sus3;
#X connect 1 0 3 1;
#X connect 2 0 3 3;
#X connect 3 0 4 0;
#X connect 5 0 3 0;
#X connect 6 0 3 2;
#X restore 35 291 pd RW-arrays;
#N canvas 663 651 114 77 write 0;
#X obj 4 24 inlet~;
#X obj 4 4 block~ 515;
#X obj 4 45 tabsend~ wave3;
#X connect 0 0 2 0;
#X restore 35 312 pd write;
#X obj 35 226 +~ 512;
#X obj 160 227 +~ 0;
#X obj 17 29 table atk3 515;
#X obj 17 48 table sus3 515;
#X obj 193 34 bng 15 250 50 0 empty empty empty 17 7 0 10 -262144 -1
-1;
#X obj 212 32 r newWave;
#X msg 193 75 \; atk3 sinesum 512 \$1 \$2 \$3 \$4 \$5 \$6 \$7 \$8 \$9
\$10 \$11 \$12 \; atk3 normalize \;;
#X msg 131 122 \; sus3 sinesum 512 \$1 \$2 \$3 \$4 \$5 \$6 \$7 \$8
\; sus3 normalize \;;
#N canvas 615 380 552 485 randomWaveGen 0;
#X floatatom 7 337 5 0 0 0 - - -;
#X floatatom 44 306 5 0 0 0 - - -;
#X floatatom 78 306 5 0 0 0 - - -;
#X floatatom 113 304 5 0 0 0 - - -;
#X floatatom 147 304 5 0 0 0 - - -;
#X floatatom 183 304 5 0 0 0 - - -;
#X floatatom 218 304 5 0 0 0 - - -;
#X floatatom 253 304 5 0 0 0 - - -;
#X floatatom 287 304 5 0 0 0 - - -;
#X floatatom 8 234 5 0 0 0 - - -;
#X obj 214 -44 inlet bang;
#X obj 7 410 outlet;
#X floatatom 322 304 5 0 0 0 - - -;
#X floatatom 357 304 5 0 0 0 - - -;
#X floatatom 392 304 5 0 0 0 - - -;
#X obj 8 213 random 100;
#X obj 7 388 pack f f f f f f f f f f f f;
#X obj 7 360 bondo 12 -------------------;
#X obj 98 118 f;
#X obj 154 94 bng 15 250 50 0 empty empty empty 17 7 0 10 -262144 -1
-1;
#X obj 124 118 + 1;
#X obj 98 159 pack f f;
#X obj 154 71 until;
#X msg 154 51 11;
#X obj 8 193 sel 1;
#X obj 99 196 route 0 1 2 3 4 5 6 7 8 9 10 11;
#X obj 98 139 mod 12;
#X obj 8 172 == 11;
#X obj 9 285 *;
#X obj 44 285 *;
#X obj 81 284 *;
#X obj 113 284 *;
#X obj 147 284 *;
#X obj 183 284 *;
#X obj 218 284 *;
#X obj 253 284 *;
#X obj 287 284 *;
#X obj 323 284 *;
#X obj 357 284 *;
#X obj 392 284 *;
#X msg 115 -1 0;
#X obj 115 -23 loadbang;
#X obj 143 139 shuffle 0 100;
#X obj 265 85 f;
#X obj 291 85 + 1;
#X obj 265 126 pack f f;
#X obj 327 49 bng 15 250 50 0 empty empty empty 17 7 0 10 -262144 -1
-1;
#X obj 440 231 /;
#X obj 395 231 /;
#X obj 356 231 /;
#X obj 317 230 /;
#X obj 276 231 /;
#X obj 240 231 /;
#X obj 209 231 /;
#X obj 177 231 /;
#X obj 151 231 /;
#X obj 125 231 /;
#X obj 99 231 /;
#X obj 265 147 route 0 1 2 3 4 5 6 7 8 9 10;
#X obj 265 106 mod 11;
#X obj 214 -24 t b b;
#X obj 329 29 until;
#X msg 329 9 10;
#X obj 310 106 shuffle 0 12;
#X obj -9 312 + 666;
#X connect 0 0 17 0;
#X connect 1 0 17 1;
#X connect 2 0 17 2;
#X connect 3 0 17 3;
#X connect 4 0 17 4;
#X connect 5 0 17 5;
#X connect 6 0 17 6;
#X connect 7 0 17 7;
#X connect 8 0 17 8;
#X connect 9 0 28 0;
#X connect 9 0 29 0;
#X connect 9 0 30 0;
#X connect 9 0 31 0;
#X connect 9 0 32 0;
#X connect 9 0 33 0;
#X connect 9 0 34 0;
#X connect 9 0 35 0;
#X connect 9 0 36 0;
#X connect 9 0 37 0;
#X connect 9 0 38 0;
#X connect 9 0 39 0;
#X connect 10 0 60 0;
#X connect 12 0 17 9;
#X connect 13 0 17 10;
#X connect 14 0 17 11;
#X connect 15 0 9 0;
#X connect 16 0 11 0;
#X connect 17 0 16 0;
#X connect 17 1 16 1;
#X connect 17 2 16 2;
#X connect 17 3 16 3;
#X connect 17 4 16 4;
#X connect 17 5 16 5;
#X connect 17 6 16 6;
#X connect 17 7 16 7;
#X connect 17 8 16 8;
#X connect 17 9 16 9;
#X connect 17 10 16 10;
#X connect 17 11 16 11;
#X connect 18 0 20 0;
#X connect 18 0 26 0;
#X connect 19 0 18 0;
#X connect 19 0 42 0;
#X connect 20 0 18 1;
#X connect 21 0 25 0;
#X connect 22 0 19 0;
#X connect 23 0 22 0;
#X connect 24 0 15 0;
#X connect 25 0 28 1;
#X connect 25 1 57 0;
#X connect 25 2 56 0;
#X connect 25 3 55 0;
#X connect 25 4 54 0;
#X connect 25 5 53 0;
#X connect 25 6 52 0;
#X connect 25 7 51 0;
#X connect 25 8 50 0;
#X connect 25 9 49 0;
#X connect 25 10 48 0;
#X connect 25 11 47 0;
#X connect 26 0 21 0;
#X connect 26 0 27 0;
#X connect 27 0 24 0;
#X connect 28 0 64 0;
#X connect 29 0 1 0;
#X connect 30 0 2 0;
#X connect 31 0 3 0;
#X connect 32 0 4 0;
#X connect 33 0 5 0;
#X connect 34 0 6 0;
#X connect 35 0 7 0;
#X connect 36 0 8 0;
#X connect 37 0 12 0;
#X connect 38 0 13 0;
#X connect 39 0 14 0;
#X connect 40 0 18 1;
#X connect 40 0 43 1;
#X connect 41 0 40 0;
#X connect 42 0 21 1;
#X connect 43 0 44 0;
#X connect 43 0 59 0;
#X connect 44 0 43 1;
#X connect 45 0 58 0;
#X connect 46 0 43 0;
#X connect 46 0 63 0;
#X connect 47 0 39 1;
#X connect 48 0 38 1;
#X connect 49 0 37 1;
#X connect 50 0 36 1;
#X connect 51 0 35 1;
#X connect 52 0 34 1;
#X connect 53 0 33 1;
#X connect 54 0 32 1;
#X connect 55 0 31 1;
#X connect 56 0 30 1;
#X connect 57 0 29 1;
#X connect 58 0 57 1;
#X connect 58 1 56 1;
#X connect 58 2 55 1;
#X connect 58 3 54 1;
#X connect 58 4 53 1;
#X connect 58 5 52 1;
#X connect 58 6 51 1;
#X connect 58 7 50 1;
#X connect 58 8 49 1;
#X connect 58 9 48 1;
#X connect 58 10 47 1;
#X connect 59 0 45 0;
#X connect 60 0 23 0;
#X connect 60 1 62 0;
#X connect 61 0 46 0;
#X connect 62 0 61 0;
#X connect 63 0 45 1;
#X connect 64 0 0 0;
#X restore 193 53 pd randomWaveGen;
#X connect 0 0 1 0;
#X connect 1 0 2 0;
#X connect 1 1 3 0;
#X connect 2 0 4 0;
#X connect 3 0 4 0;
#X connect 4 0 5 0;
#X connect 5 0 10 0;
#X connect 5 0 11 0;
#X connect 6 0 8 0;
#X connect 7 0 8 1;
#X connect 8 0 9 0;
#X connect 10 0 6 0;
#X connect 11 0 7 0;
#X connect 14 0 18 0;
#X connect 15 0 18 0;
#X connect 18 0 16 0;
#X connect 18 0 17 0;
#X restore 114 58 pd waveGen3;
#N canvas 810 614 572 356 waveGen4 0;
#X obj 35 84 r mTrig;
#X obj 35 106 sel 0 1;
#X msg 35 129 0;
#X msg 65 129 512;
#X msg 35 167 \$1 250;
#X obj 35 192 line~;
#X obj 35 254 tabread~ hanning;
#X obj 160 253 tabread~ hanning;
#N canvas 900 668 224 115 RW-arrays 0;
#X obj 8 8 block~ 512;
#X obj 61 48 inlet~;
#X obj 167 48 inlet~;
#X obj 8 68 expr~ ($v1*$v2) + ($v3*$v4);
#X obj 8 89 outlet~;
#X obj 8 28 tabreceive~ atk4;
#X obj 114 28 tabreceive~ sus4;
#X connect 1 0 3 1;
#X connect 2 0 3 3;
#X connect 3 0 4 0;
#X connect 5 0 3 0;
#X connect 6 0 3 2;
#X restore 35 291 pd RW-arrays;
#N canvas 663 651 114 77 write 0;
#X obj 4 24 inlet~;
#X obj 4 4 block~ 515;
#X obj 4 45 tabsend~ wave4;
#X connect 0 0 2 0;
#X restore 35 312 pd write;
#X obj 35 226 +~ 512;
#X obj 160 227 +~ 0;
#X obj 17 29 table atk4 515;
#X obj 17 48 table sus4 515;
#X obj 203 44 bng 15 250 50 0 empty empty empty 17 7 0 10 -262144 -1
-1;
#X obj 222 42 r newWave;
#X msg 203 85 \; atk4 sinesum 512 \$1 \$2 \$3 \$4 \$5 \$6 \$7 \$8 \$9
\$10 \$11 \$12 \; atk4 normalize \;;
#X msg 140 131 \; sus4 sinesum 512 \$1 \$2 \$3 \$4 \$5 \$6 \$7 \$8
\; sus4 normalize \;;
#N canvas 232 474 552 485 randomWaveGen 0;
#X floatatom -6 337 5 0 0 0 - - -;
#X floatatom 44 306 5 0 0 0 - - -;
#X floatatom 78 306 5 0 0 0 - - -;
#X floatatom 113 304 5 0 0 0 - - -;
#X floatatom 147 304 5 0 0 0 - - -;
#X floatatom 183 304 5 0 0 0 - - -;
#X floatatom 218 304 5 0 0 0 - - -;
#X floatatom 253 304 5 0 0 0 - - -;
#X floatatom 287 304 5 0 0 0 - - -;
#X floatatom 8 234 5 0 0 0 - - -;
#X obj 214 -44 inlet bang;
#X obj 7 410 outlet;
#X floatatom 322 304 5 0 0 0 - - -;
#X floatatom 357 304 5 0 0 0 - - -;
#X floatatom 392 304 5 0 0 0 - - -;
#X obj 8 213 random 100;
#X obj 7 388 pack f f f f f f f f f f f f;
#X obj 7 360 bondo 12 -------------------;
#X obj 98 118 f;
#X obj 154 94 bng 15 250 50 0 empty empty empty 17 7 0 10 -262144 -1
-1;
#X obj 124 118 + 1;
#X obj 98 159 pack f f;
#X obj 154 71 until;
#X msg 154 51 11;
#X obj 8 193 sel 1;
#X obj 99 196 route 0 1 2 3 4 5 6 7 8 9 10 11;
#X obj 98 139 mod 12;
#X obj 8 172 == 11;
#X obj 9 285 *;
#X obj 44 285 *;
#X obj 81 284 *;
#X obj 113 284 *;
#X obj 147 284 *;
#X obj 183 284 *;
#X obj 218 284 *;
#X obj 253 284 *;
#X obj 287 284 *;
#X obj 323 284 *;
#X obj 357 284 *;
#X obj 392 284 *;
#X msg 115 -1 0;
#X obj 115 -23 loadbang;
#X obj 143 139 shuffle 0 100;
#X obj 265 85 f;
#X obj 291 85 + 1;
#X obj 265 126 pack f f;
#X obj 327 49 bng 15 250 50 0 empty empty empty 17 7 0 10 -262144 -1
-1;
#X obj 440 231 /;
#X obj 395 231 /;
#X obj 356 231 /;
#X obj 317 230 /;
#X obj 276 231 /;
#X obj 240 231 /;
#X obj 209 231 /;
#X obj 177 231 /;
#X obj 151 231 /;
#X obj 125 231 /;
#X obj 99 231 /;
#X obj 265 147 route 0 1 2 3 4 5 6 7 8 9 10;
#X obj 265 106 mod 11;
#X obj 214 -24 t b b;
#X obj 329 29 until;
#X msg 329 9 10;
#X obj 310 106 shuffle 0 12;
#X obj -2 310 % 42;
#X connect 0 0 17 0;
#X connect 1 0 17 1;
#X connect 2 0 17 2;
#X connect 3 0 17 3;
#X connect 4 0 17 4;
#X connect 5 0 17 5;
#X connect 6 0 17 6;
#X connect 7 0 17 7;
#X connect 8 0 17 8;
#X connect 9 0 28 0;
#X connect 9 0 29 0;
#X connect 9 0 30 0;
#X connect 9 0 31 0;
#X connect 9 0 32 0;
#X connect 9 0 33 0;
#X connect 9 0 34 0;
#X connect 9 0 35 0;
#X connect 9 0 36 0;
#X connect 9 0 37 0;
#X connect 9 0 38 0;
#X connect 9 0 39 0;
#X connect 10 0 60 0;
#X connect 12 0 17 9;
#X connect 13 0 17 10;
#X connect 14 0 17 11;
#X connect 15 0 9 0;
#X connect 16 0 11 0;
#X connect 17 0 16 0;
#X connect 17 1 16 1;
#X connect 17 2 16 2;
#X connect 17 3 16 3;
#X connect 17 4 16 4;
#X connect 17 5 16 5;
#X connect 17 6 16 6;
#X connect 17 7 16 7;
#X connect 17 8 16 8;
#X connect 17 9 16 9;
#X connect 17 10 16 10;
#X connect 17 11 16 11;
#X connect 18 0 20 0;
#X connect 18 0 26 0;
#X connect 19 0 18 0;
#X connect 19 0 42 0;
#X connect 20 0 18 1;
#X connect 21 0 25 0;
#X connect 22 0 19 0;
#X connect 23 0 22 0;
#X connect 24 0 15 0;
#X connect 25 0 28 1;
#X connect 25 1 57 0;
#X connect 25 2 56 0;
#X connect 25 3 55 0;
#X connect 25 4 54 0;
#X connect 25 5 53 0;
#X connect 25 6 52 0;
#X connect 25 7 51 0;
#X connect 25 8 50 0;
#X connect 25 9 49 0;
#X connect 25 10 48 0;
#X connect 25 11 47 0;
#X connect 26 0 21 0;
#X connect 26 0 27 0;
#X connect 27 0 24 0;
#X connect 28 0 64 0;
#X connect 29 0 1 0;
#X connect 30 0 2 0;
#X connect 31 0 3 0;
#X connect 32 0 4 0;
#X connect 33 0 5 0;
#X connect 34 0 6 0;
#X connect 35 0 7 0;
#X connect 36 0 8 0;
#X connect 37 0 12 0;
#X connect 38 0 13 0;
#X connect 39 0 14 0;
#X connect 40 0 18 1;
#X connect 40 0 43 1;
#X connect 41 0 40 0;
#X connect 42 0 21 1;
#X connect 43 0 44 0;
#X connect 43 0 59 0;
#X connect 44 0 43 1;
#X connect 45 0 58 0;
#X connect 46 0 43 0;
#X connect 46 0 63 0;
#X connect 47 0 39 1;
#X connect 48 0 38 1;
#X connect 49 0 37 1;
#X connect 50 0 36 1;
#X connect 51 0 35 1;
#X connect 52 0 34 1;
#X connect 53 0 33 1;
#X connect 54 0 32 1;
#X connect 55 0 31 1;
#X connect 56 0 30 1;
#X connect 57 0 29 1;
#X connect 58 0 57 1;
#X connect 58 1 56 1;
#X connect 58 2 55 1;
#X connect 58 3 54 1;
#X connect 58 4 53 1;
#X connect 58 5 52 1;
#X connect 58 6 51 1;
#X connect 58 7 50 1;
#X connect 58 8 49 1;
#X connect 58 9 48 1;
#X connect 58 10 47 1;
#X connect 59 0 45 0;
#X connect 60 0 23 0;
#X connect 60 1 62 0;
#X connect 61 0 46 0;
#X connect 62 0 61 0;
#X connect 63 0 45 1;
#X connect 64 0 0 0;
#X restore 203 63 pd randomWaveGen;
#X connect 0 0 1 0;
#X connect 1 0 2 0;
#X connect 1 1 3 0;
#X connect 2 0 4 0;
#X connect 3 0 4 0;
#X connect 4 0 5 0;
#X connect 5 0 10 0;
#X connect 5 0 11 0;
#X connect 6 0 8 0;
#X connect 7 0 8 1;
#X connect 8 0 9 0;
#X connect 10 0 6 0;
#X connect 11 0 7 0;
#X connect 14 0 18 0;
#X connect 15 0 18 0;
#X connect 18 0 16 0;
#X connect 18 0 17 0;
#X restore 114 77 pd waveGen4;
#X restore 156 69 pd waveforms;
#X obj 245 15 tgl 32 0 empty empty empty 17 7 0 10 -262144 -1 -1 1
1;
#X msg 245 49 \; pd dsp \$1;
#X obj 312 15 bng 32 250 50 0 empty empty empty 17 7 0 10 -262144 -1
-1;
#N canvas 627 331 375 558 wavetable 0;
#X obj 127 383 tabread wave1;
#X obj 112 85 t f f f f f;
#X obj 19 521 tabwrite outWave;
#X msg 69 43 bang;
#X obj 69 15 r xNeg;
#X floatatom 143 359 5 0 0 0 - - -;
#X obj 143 291 tabread wave2;
#X obj 114 15 r yNeg;
#X obj 300 219 r yPlu;
#X obj 159 199 tabread wave3;
#X obj 229 219 r xPlu;
#X obj 316 130 r yNeg;
#X obj 175 109 tabread wave4;
#X obj 245 130 r xPlu;
#X obj 203 403 r xNeg;
#X obj 280 403 r yNeg;
#X obj 219 317 r xNeg;
#X obj 296 317 r yPlu;
#X floatatom 127 443 5 0 0 0 - - -;
#X floatatom 176 176 5 0 0 0 - - -;
#X floatatom 161 269 5 0 0 0 - - -;
#X obj 143 338 expr ($f1*(($f2+$f3)*0.5));
#X obj 161 248 expr ($f1*(($f2+$f3)*0.5));
#X obj 127 423 expr ($f1*(($f2+$f3)*0.5));
#X obj 176 155 expr ($f1*(($f2+$f3)*0.5));
#X obj 69 64 kalashnikov 515;
#X floatatom 163 517 5 0 0 0 - - -;
#X obj 127 484 expr ($f1+$f2+$f3+$f4)*0.5;
#X connect 0 0 23 0;
#X connect 1 0 2 1;
#X connect 1 1 0 0;
#X connect 1 2 6 0;
#X connect 1 3 9 0;
#X connect 1 4 12 0;
#X connect 3 0 25 0;
#X connect 4 0 3 0;
#X connect 5 0 27 1;
#X connect 6 0 21 0;
#X connect 7 0 3 0;
#X connect 8 0 22 2;
#X connect 9 0 22 0;
#X connect 10 0 22 1;
#X connect 11 0 24 2;
#X connect 12 0 24 0;
#X connect 13 0 24 1;
#X connect 14 0 23 1;
#X connect 15 0 23 2;
#X connect 16 0 21 1;
#X connect 17 0 21 2;
#X connect 18 0 27 0;
#X connect 19 0 27 3;
#X connect 20 0 27 2;
#X connect 21 0 5 0;
#X connect 22 0 20 0;
#X connect 23 0 18 0;
#X connect 24 0 19 0;
#X connect 25 1 1 0;
#X connect 27 0 2 0;
#X connect 27 0 26 0;
#X restore 157 88 pd wavetable;
#X msg 312 49 \; newWave bang;
#N canvas 0 22 684 384 (subpatch) 0;
#X array outWave 515 float 0;
#X coords 0 1 514 -1 100 70 1 0 0;
#X restore 409 77 graph;
#X msg 15 234;
#X msg 15 234;
#X connect 1 0 16 0;
#X connect 2 0 16 0;
#X connect 3 0 16 0;
#X connect 4 0 16 0;
#X connect 5 0 16 0;
#X connect 6 0 5 0;
#X connect 6 0 15 0;
#X connect 7 0 4 0;
#X connect 7 0 14 0;
#X connect 8 0 3 0;
#X connect 8 0 13 0;
#X connect 9 0 2 0;
#X connect 9 0 12 0;
#X connect 10 0 1 0;
#X connect 10 0 11 0;
#X connect 17 0 16 0;
#X connect 18 0 17 0;
#X connect 20 0 0 0;
#X connect 25 0 26 0;
#X connect 27 0 29 0;
