#N canvas 1053 59 406 160 10;
#N canvas 69 261 851 519 TrumChukInputs 0;
#X obj 45 156 split 0 1;
#X obj 106 136 split 2 3;
#X obj 233 136 split 4 5;
#X floatatom 45 176 5 0 0 0 - - BTN1;
#X floatatom 106 176 5 0 0 0 - - BTN2;
#X floatatom 233 176 5 0 0 0 - - BTN3;
#X obj 233 156 maxlib/scale 4 5 0 1;
#X obj 106 156 maxlib/scale 2 3 0 1;
#X floatatom 528 175 5 0 0 0 - - BTNC;
#X text 527 189 BTN C;
#X text 232 190 BTN 3;
#X text 105 190 BTN 2;
#X text 44 190 BTN 1;
#X floatatom 655 175 5 0 0 0 - - BTNZ;
#X text 654 189 BTN Z;
#X obj 45 136 r COM;
#X obj 106 116 r COM;
#X obj 233 116 r COM;
#X obj 528 115 r COM;
#X obj 655 115 r COM;
#X floatatom 45 266 5 0 0 0 - - xJOY;
#X obj 45 206 r COM;
#X text 44 280 xJoy;
#X floatatom 196 266 5 0 0 0 - - yJOY;
#X obj 196 206 r COM;
#X text 195 280 yJoy;
#X floatatom 45 358 5 0 0 0 - - xTILT;
#X obj 45 298 r COM;
#X text 44 372 xTilt;
#X obj 45 338 maxlib/scale 52 92 0 255;
#X floatatom 196 358 5 0 0 0 - - yTILT;
#X obj 196 298 r COM;
#X floatatom 353 358 5 0 0 0 - - zTILT;
#X obj 353 298 r COM;
#X text 195 372 yTilt;
#X text 352 372 zTilt;
#X msg 61 31 close;
#X obj 7 136 s COM;
#X obj 7 115 comport 9600;
#X floatatom 523 357 5 0 0 0 - - MIC;
#X obj 523 297 r COM;
#X text 522 371 MIC;
#X obj 7 5 sel 1 0;
#X obj 7 -16 r COMCON;
#X msg 7 73 open \$1;
#X obj 7 52 f;
#X obj 22 31 inlet;
#X msg 171 65 ports;
#X obj 523 317 split 177 255;
#X obj 523 337 maxlib/scale 177 255 0 78;
#X floatatom 360 175 5 0 0 0 - - BTN4;
#X obj 360 115 r COM;
#X text 359 189 BTN 4;
#X obj 360 135 split 6 7;
#X obj 360 155 maxlib/scale 6 7 0 1;
#X obj 528 135 split 8 9;
#X obj 528 155 maxlib/scale 8 9 0 1;
#X obj 655 135 split 10 11;
#X obj 655 155 maxlib/scale 10 11 0 1;
#X obj 45 226 split 12 32;
#X obj 45 246 maxlib/scale 12 32 0 255;
#X obj 196 226 split 33 53;
#X obj 196 246 maxlib/scale 33 53 0 255;
#X obj 45 318 split 54 94;
#X obj 196 318 split 95 135;
#X obj 196 338 maxlib/scale 95 135 0 255;
#X obj 353 318 split 136 176;
#X obj 353 338 maxlib/scale 136 176 0 255;
#X connect 0 0 3 0;
#X connect 1 0 7 0;
#X connect 2 0 6 0;
#X connect 6 0 5 0;
#X connect 7 0 4 0;
#X connect 15 0 0 0;
#X connect 16 0 1 0;
#X connect 17 0 2 0;
#X connect 18 0 55 0;
#X connect 19 0 57 0;
#X connect 21 0 59 0;
#X connect 24 0 61 0;
#X connect 27 0 63 0;
#X connect 29 0 26 0;
#X connect 31 0 64 0;
#X connect 33 0 66 0;
#X connect 36 0 38 0;
#X connect 38 0 37 0;
#X connect 40 0 48 0;
#X connect 42 0 45 0;
#X connect 42 1 36 0;
#X connect 43 0 42 0;
#X connect 44 0 38 0;
#X connect 45 0 44 0;
#X connect 46 0 45 1;
#X connect 47 0 38 0;
#X connect 48 0 49 0;
#X connect 49 0 39 0;
#X connect 51 0 53 0;
#X connect 53 0 54 0;
#X connect 54 0 50 0;
#X connect 55 0 56 0;
#X connect 56 0 8 0;
#X connect 57 0 58 0;
#X connect 58 0 13 0;
#X connect 59 0 60 0;
#X connect 60 0 20 0;
#X connect 61 0 62 0;
#X connect 62 0 23 0;
#X connect 63 0 29 0;
#X connect 64 0 65 0;
#X connect 65 0 30 0;
#X connect 66 0 67 0;
#X connect 67 0 32 0;
#X restore 5 12 pd TrumChukInputs;
#X floatatom 6 49 5 0 0 2 BTN_1 BTN1 HIDENS;
#X floatatom 41 49 5 0 0 2 BTN_2 BTN2 HIDENS;
#X floatatom 75 49 5 0 0 2 BTN_3 BTN3 HIDENS;
#X floatatom 145 49 5 0 0 2 BTN_C BTNC HIDENS;
#X floatatom 180 49 5 0 0 2 BTN_Z BTNZ HIDENS;
#X floatatom 215 49 5 0 0 2 xJOY xJOY HIDENS;
#X floatatom 249 49 5 0 0 2 yJOY yJOY HIDENS;
#X floatatom 284 49 5 0 0 2 xTILT xTILT HIDENS;
#X floatatom 318 49 5 0 0 2 yTILT yTILT HIDENS;
#X floatatom 353 49 5 0 0 2 zTILT zTILT HIDENS;
#X obj 83 -25 tgl 28 0 COMCON HIDENr CONNECT 32 14 0 10 -262144 -1
-1 1 1;
#X floatatom 145 84 5 0 0 0 MIC MIC -;
#X obj 5 -25 hradio 15 1 0 5 empty empty empty 0 -8 0 10 -262144 -1
-1 4;
#X floatatom 5 -7 5 0 0 0 - - -;
#X floatatom 110 49 5 0 0 2 BTN_4 BTN4 HIDENS;
#X connect 13 0 14 0;
#X connect 14 0 0 0;
